<svg width="117" height="119" viewBox="0 0 117 119" fill="none" xmlns="http://www.w3.org/2000/svg">
<rect y="1.74219" width="114.541" height="116.832" rx="15.1346" transform="rotate(-0.871159 0 1.74219)" fill="url(#paint0_linear_253_59)"/>
<path d="M24.7472 47.482C24.4149 47.1255 24.0123 46.8418 23.5647 46.6491C23.1172 46.4563 22.6345 46.3585 22.1472 46.362C20.5072 46.362 19.2672 47.122 18.4672 48.682C17.6672 50.242 17.8672 51.722 19.1472 53.122C23.8672 57.362 26.8672 60.362 28.1472 62.122C29.7872 64.362 30.5872 67.642 30.5872 71.882C30.5872 77.122 32.5872 81.002 36.5872 83.682C38.8272 85.442 41.2672 86.762 43.9872 87.642L43.9872 72.082C43.9872 68.322 42.6672 65.202 40.1472 62.682M75.8272 62.882C73.3472 65.362 71.9872 68.442 71.9872 72.082L71.9872 87.802C75.8272 86.442 79.0272 84.3219 81.6672 81.5219C84.2672 78.7219 85.5872 75.642 85.5872 71.882C85.5872 67.362 86.3472 64.122 87.8672 62.122C88.2272 61.482 88.9072 60.682 89.9872 59.682C90.9072 58.682 91.8672 57.722 92.8272 56.842C93.7472 56.002 94.6672 55.122 95.5472 54.242L96.8672 53.122C97.2248 52.7821 97.5088 52.3724 97.7014 51.9183C97.8941 51.4641 97.9914 50.9753 97.9872 50.482C97.9872 49.362 97.6272 48.362 96.8672 47.562C96.1072 46.762 95.1872 46.362 93.9872 46.362C92.7872 46.362 91.9872 46.722 91.2272 47.482M57.9872 91.002C60.7472 91.002 63.4272 90.642 65.9872 89.882L65.9872 75.602C65.9872 73.242 65.2672 71.402 63.6272 69.642C61.9872 67.882 60.1072 67.002 57.9872 67.002C55.8672 67.002 53.9872 67.802 52.4672 69.442C50.8672 71.002 49.9872 72.842 49.9872 75.242L49.9872 89.882C52.5472 90.642 55.2272 91.002 57.9872 91.002M45.9872 45.002C45.9872 48.322 43.3072 51.002 39.9872 51.002C36.6672 51.002 33.9872 48.322 33.9872 45.002C33.9872 41.682 36.6672 39.002 39.9872 39.002C43.3072 39.002 45.9872 41.682 45.9872 45.002ZM81.9872 45.002C81.9872 48.322 79.3072 51.002 75.9872 51.002C72.6672 51.002 69.9872 48.322 69.9872 45.002C69.9872 41.682 72.6672 39.002 75.9872 39.002C79.3072 39.002 81.9872 41.682 81.9872 45.002ZM63.9872 33.002C63.9872 36.322 61.3072 39.002 57.9872 39.002C54.6672 39.002 51.9872 36.322 51.9872 33.002C51.9872 29.682 54.6672 27.002 57.9872 27.002C61.3072 27.002 63.9872 29.682 63.9872 33.002ZM63.9872 55.002C63.9872 58.322 61.3072 61.002 57.9872 61.002C54.6672 61.002 51.9872 58.322 51.9872 55.002C51.9872 51.682 54.6672 49.002 57.9872 49.002C61.3072 49.002 63.9872 51.682 63.9872 55.002Z" fill="white"/>
<defs>
<linearGradient id="paint0_linear_253_59" x1="-11.3097" y1="-20.5005" x2="114.387" y2="143.18" gradientUnits="userSpaceOnUse">
<stop stop-color="#FADE96"/>
<stop offset="1" stop-color="#F87700"/>
</linearGradient>
</defs>
</svg>
