<svg width="117" height="119" viewBox="0 0 117 119" fill="none" xmlns="http://www.w3.org/2000/svg">
<rect y="1.74219" width="114.541" height="116.832" rx="15.1346" transform="rotate(-0.871159 0 1.74219)" fill="url(#paint0_linear_253_60)"/>
<g clip-path="url(#clip0_253_60)">
<path d="M93.4629 51.5192C90.2896 45.9458 72.2896 13.7858 72.2896 13.7858C72.059 13.369 71.7209 13.0216 71.3106 12.7797C70.9003 12.5378 70.4326 12.4102 69.9563 12.4102C69.4799 12.4102 69.0123 12.5378 68.6019 12.7797C68.1916 13.0216 67.8535 13.369 67.6229 13.7858L51.6229 42.1592L43.6229 28.0792C43.3923 27.6624 43.0543 27.3149 42.6439 27.073C42.2336 26.8311 41.7659 26.7035 41.2896 26.7035C40.8132 26.7035 40.3456 26.8311 39.9352 27.073C39.5249 27.3149 39.1869 27.6624 38.9563 28.0792C38.9563 28.0792 24.3963 54.4792 21.7829 59.0658C19.2248 63.1442 17.9091 67.879 17.9963 72.6925C17.9963 86.3192 28.3429 98.4258 41.1163 98.6658L69.9429 98.6658C85.4096 98.6658 97.9963 84.3192 97.9963 67.8392C98.1024 62.0743 96.5272 56.4033 93.4629 51.5192V51.5192ZM67.2763 93.3325L48.7696 93.3325C45.5659 93.2372 42.5217 91.913 40.2678 89.6342C38.0139 87.3555 36.7231 84.297 36.6629 81.0925C36.6417 78.8516 37.343 76.6635 38.6629 74.8525L47.5963 60.9592C47.7171 60.772 47.883 60.6182 48.0786 60.5116C48.2743 60.4051 48.4935 60.3493 48.7163 60.3493C48.939 60.3493 49.1583 60.4051 49.3539 60.5116C49.5495 60.6182 49.7154 60.772 49.8363 60.9592L54.5829 68.3458L54.5829 68.1325C56.2629 65.1725 65.8629 48.1858 65.8629 48.1858C65.9792 47.9806 66.1479 47.81 66.3516 47.6912C66.5554 47.5725 66.7871 47.5099 67.0229 47.5099C67.2588 47.5099 67.4904 47.5725 67.6942 47.6912C67.898 47.81 68.0666 47.9806 68.1829 48.1858C68.1829 48.1858 77.7829 65.1992 79.4629 68.1325C81.126 70.6768 82.0068 73.6529 81.9963 76.6925C81.9963 93.3325 68.9296 93.3325 67.2763 93.3325Z" fill="white"/>
</g>
<defs>
<linearGradient id="paint0_linear_253_60" x1="-11.3097" y1="-20.5005" x2="114.387" y2="143.18" gradientUnits="userSpaceOnUse">
<stop stop-color="#FADE96"/>
<stop offset="1" stop-color="#F87700"/>
</linearGradient>
<clipPath id="clip0_253_60">
<rect width="96" height="96" fill="white" transform="translate(10 8)"/>
</clipPath>
</defs>
</svg>
