<svg width="117" height="119" viewBox="0 0 117 119" fill="none" xmlns="http://www.w3.org/2000/svg">
<rect y="1.74219" width="114.541" height="116.832" rx="15.1346" transform="rotate(-0.871159 0 1.74219)" fill="url(#paint0_linear_253_62)"/>
<path d="M101 103H77V79H101V103ZM83 97H95V85H83V97ZM71 94H35C30.2261 94 25.6477 92.1036 22.2721 88.7279C18.8964 85.3523 17 80.7739 17 76C17 71.2261 18.8964 66.6477 22.2721 63.2721C25.6477 59.8964 30.2261 58 35 58H41V64H35C31.8174 64 28.7652 65.2643 26.5147 67.5147C24.2643 69.7652 23 72.8174 23 76C23 79.1826 24.2643 82.2348 26.5147 84.4853C28.7652 86.7357 31.8174 88 35 88H71V94Z" fill="white"/>
<path d="M71 73H47V49H71V73ZM53 67H65V55H53V67Z" fill="white"/>
<path d="M83 64H77V58H83C86.1826 58 89.2348 56.7357 91.4853 54.4853C93.7357 52.2348 95 49.1826 95 46C95 42.8174 93.7357 39.7652 91.4853 37.5147C89.2348 35.2643 86.1826 34 83 34H47V28H83C87.7739 28 92.3523 29.8964 95.7279 33.2721C99.1036 36.6477 101 41.2261 101 46C101 50.7739 99.1036 55.3523 95.7279 58.7279C92.3523 62.1036 87.7739 64 83 64V64ZM41 43H17V19H41V43ZM23 37H35V25H23V37Z" fill="white"/>
<defs>
<linearGradient id="paint0_linear_253_62" x1="-11.3097" y1="-20.5005" x2="114.387" y2="143.18" gradientUnits="userSpaceOnUse">
<stop stop-color="#FADE96"/>
<stop offset="1" stop-color="#F87700"/>
</linearGradient>
</defs>
</svg>
