<svg width="117" height="119" viewBox="0 0 117 119" fill="none" xmlns="http://www.w3.org/2000/svg">
<rect y="1.74219" width="114.541" height="116.832" rx="15.1346" transform="rotate(-0.871159 0 1.74219)" fill="url(#paint0_linear_253_27)"/>
<path d="M101.708 86.2969L19.1989 69.2054C16.0962 65.9833 14.2676 61.7452 14.0523 57.2773C14.0276 52.8043 15.6263 48.4742 18.5517 45.0903L100.025 23.5979L101.708 86.2969Z" fill="white"/>
<path d="M48.0118 63.6048C47.8689 58.2775 43.4343 54.0747 38.1069 54.2177C32.7796 54.3607 28.5768 58.7952 28.7198 64.1226L29.2376 83.4146C29.3805 88.7419 33.8151 92.9447 39.1424 92.8017C44.4698 92.6588 48.6726 88.2242 48.5296 82.8969L48.0118 63.6048Z" fill="white"/>
<defs>
<linearGradient id="paint0_linear_253_27" x1="-11.3097" y1="-20.5005" x2="114.387" y2="143.18" gradientUnits="userSpaceOnUse">
<stop stop-color="#FADE96"/>
<stop offset="1" stop-color="#F87700"/>
</linearGradient>
</defs>
</svg>
